<svg width="18" height="18" viewBox="0 0 18 18" fill="none" xmlns="http://www.w3.org/2000/svg">
<path d="M8.99918 10.6282C7.40168 10.6282 6.09668 9.33075 6.09668 7.72575C6.09668 6.12075 7.40168 4.83075 8.99918 4.83075C10.5967 4.83075 11.9017 6.12825 11.9017 7.73325C11.9017 9.33825 10.5967 10.6282 8.99918 10.6282ZM8.99918 5.95575C8.02418 5.95575 7.22168 6.75075 7.22168 7.73325C7.22168 8.71575 8.01668 9.51075 8.99918 9.51075C9.98168 9.51075 10.7767 8.71575 10.7767 7.73325C10.7767 6.75075 9.97418 5.95575 8.99918 5.95575Z" fill="#252525"/>
<path d="M9.00123 17.07C7.8458 17.0678 6.73595 16.619 5.90373 15.8175C3.69123 13.6875 1.24623 10.29 2.16873 6.2475C3.00123 2.58 6.20373 0.9375 9.00123 0.9375H9.00873C11.8062 0.9375 15.0087 2.58 15.8412 6.255C16.7562 10.2975 14.3112 13.6875 12.0987 15.8175C11.2665 16.619 10.1567 17.0678 9.00123 17.07ZM9.00123 2.0625C6.81873 2.0625 4.01373 3.225 3.27123 6.495C2.46123 10.0275 4.68123 13.0725 6.69123 15C7.31075 15.6025 8.14082 15.9395 9.00498 15.9395C9.86914 15.9395 10.6992 15.6025 11.3187 15C13.3212 13.0725 15.5412 10.0275 14.7462 6.495C13.9962 3.225 11.1837 2.0625 9.00123 2.0625Z" fill="#252525"/>
</svg>
